<svg width="64" height="64" viewBox="0 0 64 64" fill="none" xmlns="http://www.w3.org/2000/svg">
<g clip-path="url(#clip0_52_12177)">
<path d="M48 56C52.4183 56 56 52.4183 56 48C56 43.5817 52.4183 40 48 40C43.5817 40 40 43.5817 40 48C40 52.4183 43.5817 56 48 56Z" stroke="#54FFEB" stroke-width="3" stroke-linecap="round" stroke-linejoin="round"/>
<path d="M23.2002 35.4667L40.8002 44.5333" stroke="#54FFEB" stroke-width="3" stroke-linecap="round" stroke-linejoin="round"/>
<path d="M16 40C20.4183 40 24 36.4183 24 32C24 27.5817 20.4183 24 16 24C11.5817 24 8 27.5817 8 32C8 36.4183 11.5817 40 16 40Z" stroke="#54FFEB" stroke-width="3" stroke-linecap="round" stroke-linejoin="round"/>
<path d="M23.2002 28.5332L40.8002 19.4666" stroke="#54FFEB" stroke-width="3" stroke-linecap="round" stroke-linejoin="round"/>
<path d="M48 24C52.4183 24 56 20.4183 56 16C56 11.5817 52.4183 8 48 8C43.5817 8 40 11.5817 40 16C40 20.4183 43.5817 24 48 24Z" stroke="#54FFEB" stroke-width="3" stroke-linecap="round" stroke-linejoin="round"/>
</g>
<defs>
<clipPath id="clip0_52_12177">
<rect width="64" height="64" fill="#54FFEB"/>
</clipPath>
</defs>
</svg>
