<svg width="96" height="96" viewBox="0 0 96 96" fill="none" xmlns="http://www.w3.org/2000/svg">
<path d="M39.2002 51.4668L56.8002 60.5335" stroke="url(#paint0_linear_144_302)" stroke-width="3" stroke-linecap="round" stroke-linejoin="round"/>
<path d="M39.2002 44.5332L56.8002 35.4666" stroke="url(#paint1_linear_144_302)" stroke-width="3" stroke-linecap="round" stroke-linejoin="round"/>
<path d="M64 72C68.4183 72 72 68.4183 72 64C72 59.5817 68.4183 56 64 56C59.5817 56 56 59.5817 56 64C56 68.4183 59.5817 72 64 72Z" stroke="url(#paint2_linear_144_302)" stroke-width="3" stroke-linecap="round" stroke-linejoin="round"/>
<path d="M64 40C68.4183 40 72 36.4183 72 32C72 27.5817 68.4183 24 64 24C59.5817 24 56 27.5817 56 32C56 36.4183 59.5817 40 64 40Z" stroke="url(#paint3_linear_144_302)" stroke-width="3" stroke-linecap="round" stroke-linejoin="round"/>
<path d="M32 56C36.4183 56 40 52.4183 40 48C40 43.5817 36.4183 40 32 40C27.5817 40 24 43.5817 24 48C24 52.4183 27.5817 56 32 56Z" stroke="url(#paint4_linear_144_302)" stroke-width="3" stroke-linecap="round" stroke-linejoin="round"/>
<rect x="1.5" y="1.5" width="93" height="93" rx="46.5" stroke="url(#paint5_linear_144_302)" stroke-width="3"/>
<defs>
<linearGradient id="paint0_linear_144_302" x1="56.8002" y1="51.4668" x2="49.4179" y2="65.7971" gradientUnits="userSpaceOnUse">
<stop stop-color="#8BEAFF"/>
<stop offset="1" stop-color="#006C9E"/>
</linearGradient>
<linearGradient id="paint1_linear_144_302" x1="56.8002" y1="35.4666" x2="49.4179" y2="49.7969" gradientUnits="userSpaceOnUse">
<stop stop-color="#8BEAFF"/>
<stop offset="1" stop-color="#006C9E"/>
</linearGradient>
<linearGradient id="paint2_linear_144_302" x1="72" y1="56" x2="56" y2="72" gradientUnits="userSpaceOnUse">
<stop stop-color="#8BEAFF"/>
<stop offset="1" stop-color="#006C9E"/>
</linearGradient>
<linearGradient id="paint3_linear_144_302" x1="72" y1="24" x2="56" y2="40" gradientUnits="userSpaceOnUse">
<stop stop-color="#8BEAFF"/>
<stop offset="1" stop-color="#006C9E"/>
</linearGradient>
<linearGradient id="paint4_linear_144_302" x1="40" y1="40" x2="24" y2="56" gradientUnits="userSpaceOnUse">
<stop stop-color="#8BEAFF"/>
<stop offset="1" stop-color="#006C9E"/>
</linearGradient>
<linearGradient id="paint5_linear_144_302" x1="96" y1="0" x2="0" y2="96" gradientUnits="userSpaceOnUse">
<stop stop-color="#8BEAFF"/>
<stop offset="1" stop-color="#006C9E"/>
</linearGradient>
</defs>
</svg>
